<svg width="1144" height="630" viewBox="0 0 1144 630" fill="none" xmlns="http://www.w3.org/2000/svg">
<path d="M327.781 283.08C326.659 283.08 326.378 282.52 326.94 281.68L332.831 274.12C333.392 273.28 334.795 272.72 335.917 272.72H436.073C437.196 272.72 437.476 273.56 436.915 274.4L432.146 281.68C431.585 282.52 430.182 283.36 429.34 283.36L327.781 283.08Z" fill="#00ACD7"/>
<path d="M285.418 308.84C284.296 308.84 284.015 308.28 284.576 307.44L290.468 299.88C291.029 299.04 292.432 298.48 293.554 298.48H421.485C422.607 298.48 423.168 299.32 422.888 300.16L420.643 306.88C420.363 308 419.24 308.56 418.118 308.56L285.418 308.84Z" fill="#00ACD7"/>
<path d="M353.311 334.6C352.189 334.6 351.908 333.76 352.47 332.92L356.397 325.92C356.958 325.08 358.081 324.24 359.203 324.24H415.313C416.435 324.24 416.996 325.08 416.996 326.2L416.435 332.92C416.435 334.04 415.313 334.88 414.471 334.88L353.311 334.6Z" fill="#00ACD7"/>
<path d="M644.522 278.04C626.848 282.52 614.784 285.88 597.39 290.36C593.182 291.48 592.901 291.76 589.254 287.56C585.046 282.8 581.96 279.72 576.068 276.92C558.393 268.24 541.28 270.76 525.288 281.12C506.211 293.44 496.392 311.64 496.672 334.32C496.953 356.72 512.383 375.2 534.547 378.28C553.624 380.8 569.615 374.08 582.24 359.8C584.765 356.72 587.009 353.36 589.815 349.44C579.715 349.44 567.09 349.44 535.669 349.44C529.777 349.44 528.374 345.8 530.338 341.04C533.985 332.36 540.719 317.8 544.646 310.52C545.488 308.84 547.452 306.04 551.66 306.04C565.968 306.04 618.712 306.04 653.78 306.04C653.219 313.6 653.219 321.16 652.097 328.72C649.011 348.88 641.436 367.36 629.092 383.6C608.892 410.2 582.521 426.72 549.135 431.2C521.641 434.84 496.111 429.52 473.667 412.72C452.906 397.04 441.123 376.32 438.037 350.56C434.39 320.04 443.368 292.6 461.884 268.52C481.803 242.48 508.175 225.96 540.438 220.08C566.81 215.32 592.059 218.4 614.784 233.8C629.653 243.6 640.314 257.04 647.328 273.28C649.011 275.8 647.889 277.2 644.522 278.04Z" fill="#00ACD7"/>
<path d="M737.384 432.88C711.854 432.32 688.569 425.04 668.93 408.24C652.378 393.96 641.997 375.76 638.631 354.2C633.581 322.56 642.278 294.56 661.355 269.64C681.835 242.76 706.524 228.76 739.909 222.88C768.525 217.84 795.458 220.64 819.866 237.16C842.029 252.28 855.776 272.72 859.424 299.6C864.193 337.4 853.251 368.2 827.16 394.52C808.644 413.28 785.919 425.04 759.828 430.36C752.253 431.76 744.679 432.04 737.384 432.88ZM804.155 319.76C803.875 316.12 803.875 313.32 803.314 310.52C798.264 282.8 772.734 267.12 746.081 273.28C719.99 279.16 703.157 295.68 696.985 322C691.935 343.84 702.596 365.96 722.796 374.92C738.226 381.64 753.656 380.8 768.525 373.24C790.689 361.76 802.752 343.84 804.155 319.76Z" fill="#00ACD7"/>
</svg>
